PathFileType	4	(X/Y/Z)	D:\datacapture\jf2lin\2017-09-14 IITTimeSync\timesync2.trc
DataRate	CameraRate	NumFrames	NumMarkers	Units	OrigDataRate	OrigDataStartFrame	OrigNumFrames
100.00	100.00	      278	3	mm	100.00	2514	      2873
Frame#	Time	M1			M2			M3			
		X1	Y1	Z1	X2	Y2	Z2	X3	Y3	Z3	

2514	25.130	334.67285	1477.49011	756.64716				495.50824	1362.32715	724.99225	
2515	25.140	335.83231	1478.26257	763.58185				497.10501	1363.87903	729.98199	
2516	25.150	336.69254	1478.91125	770.45825				497.93335	1363.68335	734.67035	
2517	25.160	338.16400	1479.05151	776.68726				498.65564	1365.57068	739.72174	
2518	25.170										
2519	25.180										
2520	25.190										
2521	25.200										
2522	25.210										
2523	25.220										
2524	25.230										
2525	25.240										
2526	25.250										
2527	25.260										
2528	25.270	367.70270	1491.87659	844.03510	397.70639	1454.98132	825.13806	489.28452	1349.03162	778.70746	
2529	25.280	372.99686	1494.18823	850.43530	399.98334	1455.97668	830.16193	485.54742	1343.10229	782.02875	
2530	25.290	377.73492	1496.16589	855.92377	404.02469	1455.67236	835.13593	481.71329	1340.81970	782.82538	
2531	25.300	380.95786	1498.09045	860.60229	405.76114	1457.17676	840.59003	480.73016	1339.29456	785.86096	
2532	25.310	385.51718	1497.81592	866.12982	409.45901	1456.40662	845.49396	480.24652	1338.94495	789.21619	
2533	25.320	387.80783	1497.83594	871.61310	411.11472	1456.47217	850.14984	481.92096	1338.93250	792.40521	
2534	25.330	390.23245	1497.39795	876.68427	414.18442	1455.62292	855.08893	484.20944	1339.05969	795.55273	
2535	25.340	393.43076	1496.24268	882.46222	415.96545	1455.85229	859.32831	486.73129	1339.28284	798.73987	
2536	25.350	395.06329	1496.63586	886.00061	419.15652	1455.23694	863.61371	488.90363	1339.17041	802.35779	
2537	25.360	398.33856	1495.42249	890.06586	420.88937	1455.55322	867.84979	490.87018	1339.62939	805.83093	
2538	25.370	400.01593	1495.49622	894.58917	423.80310	1454.66931	871.40625	494.11731	1339.57922	809.22949	
2539	25.380	402.41693	1495.04102	898.54486	425.68079	1455.14966	875.83221	497.09799	1340.13574	812.49860	
2540	25.390	404.37817	1494.30591	902.76996	428.59705	1454.29065	879.35150	500.01776	1340.51868	815.43610	
2541	25.400				430.16522	1454.32703	883.26294	501.75330	1341.89600	817.38440	
2542	25.410				433.11948	1453.42834	887.35730	505.66248	1342.32031	821.95642	
2543	25.420				434.34097	1453.79260	891.24921	509.46689	1342.53772	825.16302	
2544	25.430				436.65060	1452.58350	894.53717	512.21796	1343.46973	828.43756	
2545	25.440				438.25128	1452.32971	897.82813	516.54993	1343.60974	831.68683	
2546	25.450				439.25339	1452.43176	901.04462	518.96759	1345.41833	835.55347	
2547	25.460				441.08768	1451.41333	903.68353	521.62500	1347.50061	837.17957	
2548	25.470				442.24179	1451.29919	906.63019	526.10272	1348.36841	840.54443	
2549	25.480				443.42105	1451.03052	909.39398	531.45276	1348.53162	845.08099	
2550	25.490				439.88281	1465.41614	936.08624	535.66461	1349.81982	848.60486	
2551	25.500				440.43613	1464.98645	938.74274	537.85278	1350.93738	852.16980	
2552	25.510				441.20737	1464.79041	941.34442	538.93439	1353.06738	854.19067	
2553	25.520				442.04874	1464.95959	943.90155	543.45020	1351.76758	859.29102	
2554	25.530				443.21771	1465.45923	946.75854	543.99170	1352.00647	862.58185	
2555	25.540				444.43350	1465.83777	950.00330	543.87482	1352.58362	864.92377	
2556	25.550				417.61090	1437.56873	956.55487	544.48242	1352.93250	867.98712	
2557	25.560				417.52072	1436.72485	959.95905	545.22284	1353.54932	870.71716	
2558	25.570				475.83316	1435.11414	939.19531	545.50531	1353.55945	872.79004	
2559	25.580				476.48685	1435.58679	943.50916	546.20337	1353.68530	876.38647	
2560	25.590				477.57382	1436.07239	947.73206	545.21136	1355.28467	877.07184	
2561	25.600				478.25888	1436.84265	952.16272	544.45648	1356.70947	878.93390	
2562	25.610				479.14255	1437.53406	956.66968	545.18982	1356.46606	882.64136	
2563	25.620				455.57776	1411.97046	964.31378	544.58820	1357.68848	885.34485	
2564	25.630										
2565	25.640										
2566	25.650										
2567	25.660										
2568	25.670										
2569	25.680										
2570	25.690										
2571	25.700										
2572	25.710										
2573	25.720										
2574	25.730										
2575	25.740										
2576	25.750										
2577	25.760										
2578	25.770										
2579	25.780										
2580	25.790										
2581	25.800										
2582	25.810										
2583	25.820										
2584	25.830										
2585	25.840										
2586	25.850										
2587	25.860										
2588	25.870										
2589	25.880										
2590	25.890										
2591	25.900										
2592	25.910										
2593	25.920										
2594	25.930										
2595	25.940										
2596	25.950										
2597	25.960										
2598	25.970										
2599	25.980										
2600	25.990										
2601	26.000										
2602	26.010										
2603	26.020										
2604	26.030										
2605	26.040										
2606	26.050										
2607	26.060										
2608	26.070										
2609	26.080										
2610	26.090										
2611	26.100										
2612	26.110										
2613	26.120										
2614	26.130										
2615	26.140										
2616	26.150										
2617	26.160										
2618	26.170										
2619	26.180										
2620	26.190										
2621	26.200										
2622	26.210										
2623	26.220										
2624	26.230										
2625	26.240										
2626	26.250										
2627	26.260										
2628	26.270										
2629	26.280										
2630	26.290										
2631	26.300										
2632	26.310										
2633	26.320										
2634	26.330										
2635	26.340										
2636	26.350										
2637	26.360										
2638	26.370										
2639	26.380										
2640	26.390										
2641	26.400										
2642	26.410										
2643	26.420										
2644	26.430										
2645	26.440										
2646	26.450										
2647	26.460										
2648	26.470										
2649	26.480										
2650	26.490										
2651	26.500										
2652	26.510										
2653	26.520										
2654	26.530										
2655	26.540										
2656	26.550										
2657	26.560										
2658	26.570										
2659	26.580										
2660	26.590										
2661	26.600										
2662	26.610										
2663	26.620										
2664	26.630										
2665	26.640										
2666	26.650										
2667	26.660										
2668	26.670										
2669	26.680										
2670	26.690										
2671	26.700										
2672	26.710										
2673	26.720										
2674	26.730										
2675	26.740										
2676	26.750										
2677	26.760										
2678	26.770										
2679	26.780										
2680	26.790										
2681	26.800										
2682	26.810										
2683	26.820										
2684	26.830										
2685	26.840										
2686	26.850										
2687	26.860										
2688	26.870										
2689	26.880										
2690	26.890										
2691	26.900										
2692	26.910										
2693	26.920										
2694	26.930										
2695	26.940										
2696	26.950										
2697	26.960										
2698	26.970										
2699	26.980										
2700	26.990										
2701	27.000										
2702	27.010										
2703	27.020										
2704	27.030										
2705	27.040										
2706	27.050										
2707	27.060										
2708	27.070										
2709	27.080										
2710	27.090										
2711	27.100										
2712	27.110										
2713	27.120										
2714	27.130										
2715	27.140										
2716	27.150										
2717	27.160										
2718	27.170										
2719	27.180										
2720	27.190										
2721	27.200										
2722	27.210										
2723	27.220										
2724	27.230										
2725	27.240										
2726	27.250										
2727	27.260										
2728	27.270										
2729	27.280										
2730	27.290										
2731	27.300										
2732	27.310										
2733	27.320										
2734	27.330										
2735	27.340										
2736	27.350										
2737	27.360										
2738	27.370										
2739	27.380										
2740	27.390										
2741	27.400										
2742	27.410										
2743	27.420										
2744	27.430										
2745	27.440										
2746	27.450										
2747	27.460										
2748	27.470										
2749	27.480										
2750	27.490										
2751	27.500										
2752	27.510										
2753	27.520										
2754	27.530										
2755	27.540										
2756	27.550										
2757	27.560										
2758	27.570										
2759	27.580										
2760	27.590										
2761	27.600										
2762	27.610										
2763	27.620										
2764	27.630										
2765	27.640										
2766	27.650										
2767	27.660										
2768	27.670										
2769	27.680										
2770	27.690										
2771	27.700										
2772	27.710										
2773	27.720										
2774	27.730										
2775	27.740										
2776	27.750										
2777	27.760										
2778	27.770										
2779	27.780										
2780	27.790										
2781	27.800										
2782	27.810										
2783	27.820										
2784	27.830										
2785	27.840										
2786	27.850										
2787	27.860										
2788	27.870										
2789	27.880										
2790	27.890										
2791	27.900										
